<?xml version="1.0" standalone="no"?>
<svg viewBox="0 0 200 200" xmlns="http://www.w3.org/2000/svg">
  <path fill="#fda500" opacity="0.4" d="M29,-44.7C43.7,-35.7,65.9,-38,71,-31.2C76,-24.3,64,-8.4,58.9,6.6C53.9,21.7,55.8,35.9,50.3,45.3C44.8,54.7,31.8,59.4,20.1,58C8.5,56.7,-1.9,49.2,-15.4,47.5C-28.8,45.8,-45.4,49.7,-58.1,44.9C-70.7,40,-79.4,26.3,-77,13.7C-74.7,1.2,-61.3,-10.4,-54.1,-24.1C-46.9,-37.8,-45.8,-53.8,-37.8,-65.8C-29.9,-77.8,-14.9,-86,-3.9,-79.9C7.2,-73.9,14.3,-53.7,29,-44.7Z" transform="translate(100 100)" />
</svg>

